<?xml version="1.0" ?><!DOCTYPE svg  PUBLIC '-//W3C//DTD SVG 1.1//EN'  'http://www.w3.org/Graphics/SVG/1.1/DTD/svg11.dtd'><svg height="512px" style="enable-background:new 0 0 512 512;" version="1.1" viewBox="0 0 512 512" width="512px" xml:space="preserve" xmlns="http://www.w3.org/2000/svg" xmlns:xlink="http://www.w3.org/1999/xlink"><g id="_x32_61_x2C__resume_x2C__employee_x2C__hiring_x2C__hr_x2C__profile"><g><path d="M271.719,168.973v6.329c0.693-0.167,1.471-0.111,2.138,0.194l0,0    c0.223,0.083,0.443,0.166,0.639,0.277l32.091,13.963c1.275,0.556,2.027,1.832,2.027,3.137l0.025,28.232    c0,1.889-1.526,3.414-3.413,3.414H206.76c-1.86,0-3.415-1.525-3.415-3.414v-28.232c0-1.498,0.972-2.775,2.306-3.219l32.451-14.158    h0.028l0.054-0.027l0,0l0.056-0.027h0.028l0.056-0.029l0,0l0.055-0.027h0.028h0.056l0.026-0.027h0.028l0.056-0.028l0,0h0.056    l0.026-0.027h0.056h0.028l0.028-0.028h0.054l0,0h0.084l0,0l0.054-0.027h0.028h0.028h0.056v-0.027h0.083l0,0h0.056h0.028h0.026    h0.056h0.028h0.056l0,0h0.054h0.028h0.056h0.026h0.028h0.056l0,0h0.083h0.028h0.028h0.056l0,0h0.054l0.028,0.027h0.056h0.028    h0.026l0.056,0.027l0,0h0.056h0.028l0.054,0.028h0.028h0.028l0.055,0.027h0.056h0.028l0,0v-6.856    c-1.804-1.166-3.497-2.525-5.025-4.053l-0.193-0.222c-5.274-5.358-8.551-12.742-8.551-20.849c0-8.217,3.358-15.656,8.744-21.042    c3.36-3.358,7.524-5.913,12.16-7.384h0.055c0.61-0.194,1.249-0.361,1.888-0.527l0.223-0.056h0.054l0.277-0.083l0.279-0.057    l0.111-0.027l0.167-0.027l0.583-0.111l0.277-0.056h0.084l0.193-0.027l0.167-0.028l0.139-0.027l0.251-0.027h0.028l0.305-0.057    h0.026l0.251-0.027l0.139-0.027h0.167l0.195-0.027l0.083-0.027l0.277-0.029h0.028h0.277l0.084-0.027h0.221l0.167-0.027h0.112    h0.249h0.056l0.305-0.028h0.026h0.251h0.139l0.167-0.027h0.221h0.084h0.305h0.083h0.112h0.11h0.083l0,0h0.112l0.111,0.027h0.082    h0.057h0.056h0.11h0.195h0.026h0.084h0.082l0.112,0.028h0.111l0,0h0.082h0.112h0.193v0.027h0.112h0.11h0.082    c7.358,0.555,13.965,3.775,18.85,8.661c5.386,5.386,8.718,12.825,8.718,21.042s-3.332,15.686-8.745,21.07    C275.799,166.168,273.856,167.695,271.719,168.973 M167.397,251.559c-1.888,0-3.415-1.527-3.415-3.414    c0-1.889,1.527-3.415,3.415-3.415h103.405c1.889,0,3.415,1.526,3.415,3.415c0,1.887-1.526,3.414-3.415,3.414H167.397z     M167.397,273.934c-1.888,0-3.415-1.527-3.415-3.415c0-1.86,1.527-3.415,3.415-3.415h175.359c1.888,0,3.415,1.555,3.415,3.415    c0,1.888-1.527,3.415-3.415,3.415H167.397z M167.397,296.335c-1.888,0-3.415-1.554-3.415-3.414c0-1.888,1.527-3.415,3.415-3.415    h103.405c1.889,0,3.415,1.527,3.415,3.415c0,1.86-1.526,3.414-3.415,3.414H167.397z M167.397,318.71    c-1.888,0-3.415-1.526-3.415-3.415c0-1.887,1.527-3.414,3.415-3.414h175.359c1.888,0,3.415,1.527,3.415,3.414    c0,1.889-1.527,3.415-3.415,3.415H167.397z M167.397,341.085c-1.888,0-3.415-1.527-3.415-3.415c0-1.859,1.527-3.387,3.415-3.387    h103.405c1.889,0,3.415,1.527,3.415,3.387c0,1.888-1.526,3.415-3.415,3.415H167.397z M259.227,403.322    c-0.806-0.832-1.971-1.332-3.22-1.332c-1.277,0-2.415,0.5-3.248,1.332c-0.833,0.833-1.332,1.972-1.332,3.248    c0,1.249,0.498,2.416,1.332,3.22c0.833,0.833,1.971,1.361,3.248,1.361c1.249,0,2.414-0.528,3.22-1.361    c0.834-0.804,1.36-1.971,1.36-3.22C260.587,405.294,260.061,404.155,259.227,403.322z M383.064,199.758    c-0.223-0.083-0.417-0.166-0.584-0.277c-1.442-0.639-2.748-0.943-3.885-0.971c-0.723,0.027-1.416,0.277-1.944,0.638    c-0.639,0.444-1.165,1.11-1.581,1.943c-0.777,1.583-1.195,3.72-1.111,6.246c0.111,4.164,1.555,8.245,3.747,12.241    c2.304,4.193,5.47,8.246,8.938,12.242c2.805,2.971,5.831,5.886,8.801,8.773l3.858,3.803c1.333,1.332,1.36,3.47,0.028,4.803    c-0.889,0.916-2.138,1.221-3.303,0.916l-8.44-2.249c0.028,34.728,0.028,69.456,0,104.211l13.159,3.499l15.268-3.943l24.235-90.414    l-3.221-1.748c-1.082-0.611-1.721-1.693-1.777-2.832c-0.916-18.794-9.772-22.486-18.044-25.928    c-5.635-2.36-11.076-4.608-14.74-10.383C395.057,208.67,388.395,202.313,383.064,199.758z M436.03,351.383    c-1.388-2.441-1.86-5.385-1.083-8.299c0.75-2.859,2.582-5.137,4.941-6.552l0.167-0.111c2.415-1.388,5.386-1.86,8.3-1.083    c2.943,0.777,5.247,2.666,6.663,5.108c1.388,2.415,1.86,5.357,1.11,8.245l-0.027,0.055c-0.777,2.915-2.666,5.246-5.108,6.662    c-2.415,1.389-5.386,1.86-8.3,1.083C439.778,355.714,437.446,353.826,436.03,351.383z M446.996,262.44l-24.902,92.885l-1.498,5.58    l39.031,10.466l26.372-98.493L446.996,262.44z M129.532,199.48c-0.193,0.111-0.388,0.194-0.583,0.25    c-5.329,2.582-11.992,8.939-19.404,20.598c-3.692,5.774-9.105,8.022-14.768,10.383c-8.273,3.441-17.1,7.134-18.016,25.928    c-0.056,1.139-0.695,2.221-1.778,2.832l-3.248,1.748l24.235,90.414l15.296,3.943l13.131-3.499V247.866l-8.44,2.249    c-1.137,0.305-2.415,0-3.303-0.916c-1.305-1.333-1.305-3.471,0.055-4.803l3.858-3.775c2.915-2.859,5.857-5.719,8.634-8.661    c0.084-0.11,0.194-0.222,0.305-0.333c7.386-7.828,13.382-15.935,13.631-24.318c0.083-2.914-0.5-5.302-1.637-6.884    c-0.723-0.972-1.722-1.638-2.915-1.833C133.197,198.37,131.504,198.62,129.532,199.48z M143.635,197.398V90.134    c0-1.888,1.526-3.414,3.415-3.414h217.887c1.888,0,3.415,1.526,3.415,3.414v107.265c0.223-0.333,0.443-0.666,0.666-0.971    c1.776-2.416,4.247-4.025,7.273-4.553c0.777-0.14,1.582-0.195,2.415-0.167h0.056h0.027h0.027h0.028h0.056h0.027    c0.584,0,1.223,0.056,1.833,0.139V98.322c0-7.633-2.86-14.545-7.468-19.514c-4.552-4.914-10.827-7.996-17.711-7.996h-199.15    c-6.912,0-13.159,3.082-17.711,7.996c-4.636,4.969-7.496,11.881-7.496,19.514v93.58c1.611-0.277,3.109-0.25,4.498-0.027    c3.027,0.527,5.496,2.137,7.273,4.553C143.219,196.732,143.44,197.065,143.635,197.398z M256.007,395.16    c3.138,0,5.996,1.277,8.051,3.332c2.053,2.054,3.358,4.914,3.358,8.078c0,3.137-1.306,5.995-3.358,8.051    c-2.055,2.082-4.913,3.358-8.051,3.358c-3.166,0-6.024-1.276-8.079-3.358c-2.053-2.056-3.331-4.914-3.331-8.051    c0-3.164,1.277-6.024,3.331-8.078C249.983,396.438,252.841,395.16,256.007,395.16z M131.225,354.492v0.084v0.11v0.056v39.919    c0,7.634,2.86,14.546,7.496,19.544c4.552,4.913,10.799,7.966,17.711,7.966h199.15c6.884,0,13.159-3.053,17.711-7.966    c4.607-4.998,7.468-11.91,7.468-19.544v-39.919v-0.056V243.425v-7.938c-5.22-5.637-9.8-11.494-12.409-17.795v168.503    c0,1.859-1.527,3.387-3.415,3.387H147.049c-1.888,0-3.415-1.527-3.415-3.387V217.691c-2.609,6.301-7.163,12.158-12.41,17.795    v7.938v0.083v0.084V354.492z M77.066,343.084c0.777,2.914,0.277,5.857-1.111,8.299c-1.388,2.443-3.748,4.331-6.635,5.108    c-2.915,0.777-5.885,0.306-8.328-1.083c-2.415-1.416-4.331-3.747-5.108-6.662v-0.055c-0.777-2.888-0.277-5.83,1.111-8.245    c1.388-2.442,3.72-4.331,6.635-5.108s5.885-0.305,8.328,1.083l0.167,0.111C74.457,337.947,76.289,340.225,77.066,343.084z     M66.85,269.242l-1.832-6.802l-39.017,10.438l26.386,98.493l39.003-10.466L66.85,269.242z M70.07,347.996    c0.528-0.916,0.695-2.053,0.39-3.164c-0.279-1.055-0.944-1.916-1.778-2.442l-0.139-0.056c-0.888-0.527-1.971-0.694-3.053-0.445    l-0.112,0.029c-1.083,0.305-1.971,1.026-2.497,1.943c-0.5,0.859-0.695,1.971-0.444,3.053l0.026,0.084    c0.305,1.082,1.028,1.971,1.944,2.498s2.027,0.721,3.136,0.416C68.654,349.606,69.542,348.885,70.07,347.996z M236.464,132.69    l1.415,0.36c1.555,0.361,3.222,0.527,4.941,0.527c4.887,0,9.411-1.526,13.103-4.136c1.249-0.889,2.388-1.888,3.442-2.998    l0.277-0.278v-0.027l0.057-0.056l0.027-0.056l0.055-0.027l0.057-0.056v-0.028l0.027-0.027l0.055-0.055l0.028-0.057h0.027    l0.028-0.055l0.057-0.056l0,0l0.026-0.028l0.056-0.055l0.028-0.057h0.028l0.026-0.055l0.056-0.056l0,0l0.028-0.056l0.056-0.056    l0.026-0.027v-0.028l0.057-0.055l0.028-0.028l0,0c0.666-0.805,1.249-1.665,1.804-2.581l0.556-1    c-1.555-0.444-3.165-0.75-4.83-0.859l0,0h-0.085l0,0l-0.221-0.029h-0.028h-0.056h-0.026h-0.085l0,0h-0.054h-0.057h-0.027h-0.083    l0,0H257.2l0,0h-0.083h-0.027h-0.057l-0.054-0.027h-0.028h-0.056h-0.028h-0.083l0,0H256.7h-0.026h-0.028h-0.084l0,0h-0.083h-0.251    h-0.054h-0.167l-0.11,0.027h-0.112h-0.193h-0.028h-0.223h-0.028l-0.221,0.029h-0.084h-0.139l-0.139,0.026h-0.083h-0.195h-0.028    l-0.221,0.028h-0.056l-0.167,0.027l-0.111,0.027h-0.112l-0.165,0.028h-0.056l-0.223,0.028h-0.026l-0.195,0.027l-0.084,0.027    h-0.139l-0.139,0.028l-0.056,0.027l-0.221,0.028l0,0l-0.223,0.027l-0.055,0.027l-0.556,0.111h-0.026    c-0.446,0.111-0.861,0.223-1.277,0.333h-0.056l-0.167,0.056l-0.111,0.027c-3.636,1.083-6.912,3.082-9.549,5.719    C238.851,128.887,237.519,130.719,236.464,132.69z M262.142,133.551c-0.667,0.583-1.389,1.139-2.109,1.638    c-4.859,3.47-10.827,5.497-17.212,5.497c-2.166,0-4.331-0.25-6.468-0.723c-0.749-0.166-1.47-0.36-2.22-0.582    c-0.223,1.305-0.361,2.637-0.361,3.969c0,6.191,2.499,11.826,6.496,15.879l0.167,0.167c4.108,4.108,9.772,6.662,16.045,6.662    c6.245,0,11.936-2.554,16.045-6.662c4.107-4.081,6.635-9.771,6.635-16.046c0-1.055-0.084-2.109-0.223-3.137    c-3.359-0.222-6.607-1.027-9.578-2.304C266.749,136.799,264.307,135.327,262.142,133.551z M268.109,126.639    c-0.306,0.443-0.583,0.916-0.916,1.332l-0.221,0.361c1.581,1.221,3.302,2.276,5.162,3.053c1.388,0.584,2.86,1.056,4.387,1.361    c-1.055-1.999-2.416-3.831-3.997-5.414c-1-0.999-2.083-1.915-3.248-2.692l-0.223,0.36l-0.139,0.25l-0.139,0.25l-0.139,0.25    l-0.277,0.5L268.109,126.639z M260.587,193.817h9.354l-0.277-8.134L260.587,193.817z M242.515,186.211l-0.416,7.606h8.3    L242.515,186.211z M276.411,184.019l0.444,13.103c0.054,1.888-1.417,3.442-3.276,3.498l-35.062,0.027    c-1.86,0-3.387-1.527-3.387-3.414l0.667-13.297l-25.623,11.159v22.597h91.637v-22.597L276.411,184.019z M264.89,180.854v-8.911    c-2.664,0.806-5.496,1.222-8.411,1.222c-3.22,0-6.301-0.5-9.216-1.443v9.66l8.216,7.885L264.89,180.854z M449.051,347.996    c0.526-0.916,0.721-2.053,0.416-3.164c-0.277-1.055-0.944-1.916-1.805-2.442l-0.14-0.056c-0.86-0.527-1.942-0.694-3.025-0.445    l-0.11,0.029c-1.111,0.305-1.999,1.026-2.527,1.943c-0.5,0.859-0.693,1.971-0.416,3.053l0.028,0.084    c0.277,1.082,0.999,1.971,1.915,2.498s2.055,0.721,3.165,0.416C447.635,349.606,448.522,348.885,449.051,347.996z     M390.227,376.951c-1.805-0.5-2.887-2.36-2.415-4.192c0.5-1.805,2.36-2.888,4.164-2.415l9.716,2.609l6.884-3.97    c0.806-0.444,1.722-0.556,2.556-0.333l35.449,9.494c1.832,0.472,2.914,2.359,2.414,4.164c-0.472,1.832-2.359,2.887-4.164,2.414    l-34.089-9.133l-6.689,3.859c-0.777,0.527-1.777,0.721-2.776,0.443L390.227,376.951z M113.737,448.433    c-1.888,0-3.415-1.555-3.415-3.414c0-1.889,1.527-3.415,3.415-3.415h233.628c1.888,0,3.414,1.526,3.414,3.415    c0,1.859-1.526,3.414-3.414,3.414H113.737z M250.538,462.646c-1.886,0-3.415-1.554-3.415-3.414c0-1.888,1.529-3.415,3.415-3.415    h161.675c1.858,0,3.413,1.527,3.413,3.415c0,1.86-1.555,3.414-3.413,3.414H250.538z M428.757,462.646    c-1.888,0-3.415-1.554-3.415-3.414c0-1.888,1.527-3.415,3.415-3.415h20.21c1.888,0,3.414,1.527,3.414,3.415    c0,1.86-1.526,3.414-3.414,3.414H428.757z M104.521,462.201c-1.888,0-3.415-1.527-3.415-3.413c0-1.889,1.527-3.415,3.415-3.415    h76.618c1.887,0,3.413,1.526,3.413,3.415c0,1.886-1.526,3.413-3.413,3.413H104.521z M119.094,373.092    c1.804-0.5,3.692,0.583,4.164,2.415c0.5,1.805-0.583,3.664-2.415,4.164l-11.049,2.97c-0.999,0.25-1.999,0.057-2.776-0.471    l-6.661-3.859l-34.09,9.133c-1.832,0.5-3.692-0.583-4.192-2.415c-0.472-1.804,0.61-3.664,2.415-4.164l35.449-9.493    c0.833-0.195,1.75-0.111,2.555,0.36l6.884,3.942L119.094,373.092z M179.167,49.354c1.888,0,3.415,1.526,3.415,3.414    s-1.526,3.415-3.415,3.415h-61.599v65.347c0,1.86-1.527,3.415-3.415,3.415c-1.888,0-3.415-1.555-3.415-3.415V52.769    c0-1.888,1.527-3.414,3.415-3.414H179.167z M361.521,93.549H150.464V382.78h211.058V93.549z" style="fill-rule:evenodd;clip-rule:evenodd;"/></g></g><g id="Layer_1"/></svg>