<?xml version="1.0" ?><!DOCTYPE svg  PUBLIC '-//W3C//DTD SVG 1.1//EN'  'http://www.w3.org/Graphics/SVG/1.1/DTD/svg11.dtd'><svg height="512px" style="enable-background:new 0 0 512 512;" version="1.1" viewBox="0 0 512 512" width="512px" xml:space="preserve" xmlns="http://www.w3.org/2000/svg" xmlns:xlink="http://www.w3.org/1999/xlink"><g id="_x36_04_x2C__Code_x2C__executable_x2C__file_x2C__running_x2C__script"><g><path d="M387.895,59.339h-22.1h-0.081H119.052c0,123.614,0,247.229,0,370.871    h268.842V59.339z M271.8,291.528c-4.682-4.706-11.175-7.601-18.341-7.601c-7.142,0-13.634,2.895-18.313,7.601    c-4.678,4.681-7.602,11.172-7.602,18.313c0,7.169,2.923,13.633,7.602,18.339c4.678,4.68,11.171,7.574,18.313,7.574    c7.166,0,13.659-2.895,18.341-7.574c4.678-4.706,7.598-11.17,7.598-18.339C279.397,302.7,276.478,296.209,271.8,291.528z     M253.459,277.273c9.009,0,17.147,3.652,23.047,9.549c5.896,5.896,9.521,14.039,9.521,23.019c0,9.007-3.626,17.149-9.521,23.019    c-5.899,5.897-14.038,9.549-23.047,9.549c-8.98,0-17.123-3.651-23.019-9.549c-5.896-5.869-9.549-14.012-9.549-23.019    c0-8.979,3.653-17.122,9.549-23.019S244.479,277.273,253.459,277.273z M170.498,315.576v-14.31l22.479-3.382    c0.298-1.379,0.597-2.705,0.919-4.002c0.351-1.326,0.758-2.625,1.218-3.95l-17.772-14.146l8.577-14.852l21.151,8.332    c0.92-1.082,1.867-2.083,2.812-3.029c0.947-0.947,1.948-1.867,3.004-2.787l-8.332-21.179l14.849-8.575l14.175,17.771    c1.299-0.432,2.625-0.838,3.948-1.189c1.327-0.353,2.653-0.676,3.977-0.947l3.383-22.478h17.175l3.355,22.505    c1.351,0.244,2.678,0.567,4.001,0.92c1.298,0.352,2.625,0.758,3.951,1.217l14.172-17.799l14.852,8.575l-8.331,21.179    c1.053,0.92,2.057,1.867,3.028,2.814c0.92,0.946,1.867,1.946,2.787,3.002l21.151-8.332l8.574,14.852l-17.77,14.146    c0.461,1.325,0.836,2.651,1.19,3.95c0.351,1.297,0.674,2.623,0.944,4.002l22.479,3.382v17.149l-22.479,3.381    c-0.271,1.379-0.594,2.705-0.944,4.003c-0.354,1.298-0.729,2.624-1.19,3.95l17.77,14.146l-8.574,14.851l-21.151-8.332    c-0.92,1.056-1.867,2.083-2.787,3.004c-0.972,0.946-1.976,1.893-3.028,2.813l8.331,21.179l-14.852,8.575l-14.172-17.799    c-1.326,0.461-2.653,0.866-3.951,1.218c-1.323,0.353-2.65,0.677-4.001,0.919l-3.355,22.506h-17.175l-3.383-22.479    c-1.323-0.27-2.65-0.594-3.977-0.946c-1.323-0.352-2.649-0.757-3.948-1.19l-14.175,17.771l-14.849-8.575l8.332-21.179    c-1.056-0.92-2.057-1.84-3.004-2.787c-0.944-0.946-1.892-1.946-2.812-3.029l-21.151,8.332l-8.577-14.851l17.772-14.146    c-0.46-1.326-0.867-2.625-1.218-3.95c-0.323-1.298-0.649-2.624-0.919-4.003l-22.479-3.381V315.576z M177.127,309.841v2.867    l21.611,3.22l0.351,2.434c0.298,1.893,0.73,3.814,1.218,5.734c0.541,1.947,1.137,3.814,1.811,5.572l0.895,2.272l-17.095,13.605    l2.867,4.95l20.341-8.007l1.513,1.894c1.19,1.461,2.488,2.922,3.948,4.355c1.407,1.434,2.867,2.731,4.331,3.922l1.92,1.515    l-8.009,20.341l4.952,2.867l13.606-17.068l2.271,0.866c1.786,0.702,3.653,1.298,5.573,1.812c1.839,0.487,3.759,0.894,5.707,1.191    l2.436,0.377l3.247,21.613h5.706l3.246-21.613l2.408-0.377c1.972-0.298,3.896-0.704,5.734-1.191    c1.947-0.514,3.814-1.136,5.569-1.812l2.274-0.866l13.606,17.068l4.948-2.867l-7.978-20.341l1.892-1.515    c1.46-1.19,2.92-2.516,4.355-3.922c1.432-1.434,2.73-2.895,3.92-4.355l1.517-1.894l20.341,8.007l2.84-4.95l-17.067-13.605    l0.867-2.272c0.701-1.785,1.298-3.652,1.811-5.572c0.513-1.947,0.948-3.867,1.218-5.734l0.379-2.434l21.584-3.22v-5.734    l-21.584-3.219l-0.379-2.435c-0.27-1.867-0.705-3.786-1.218-5.707c-0.513-1.947-1.109-3.814-1.811-5.6l-0.867-2.271L321,274.137    l-2.84-4.951l-20.341,8.008l-1.541-1.894c-1.165-1.461-2.488-2.922-3.896-4.328c-1.46-1.461-2.92-2.786-4.384-3.949l-1.863-1.542    l7.978-20.314l-4.948-2.866l-13.606,17.067l-2.274-0.865c-1.755-0.676-3.622-1.299-5.569-1.813    c-1.839-0.486-3.763-0.893-5.734-1.19l-2.408-0.378l-3.246-21.613h-5.706l-3.247,21.613l-2.436,0.378    c-1.948,0.298-3.867,0.704-5.707,1.19c-1.919,0.514-3.787,1.109-5.573,1.813l-2.271,0.865L217.782,242.3l-4.952,2.866    l8.009,20.314l-1.92,1.542c-1.463,1.189-2.923,2.488-4.331,3.922c-1.432,1.434-2.758,2.895-3.92,4.355l-1.541,1.894l-20.341-8.008    l-2.867,4.951l17.095,13.605l-0.895,2.271c-0.674,1.785-1.271,3.652-1.783,5.572c-0.516,1.921-0.948,3.842-1.246,5.734    l-0.351,2.408l-21.611,3.245V309.841z M147.616,90.229c-1.811,0-3.299-1.487-3.299-3.301c0-1.839,1.488-3.327,3.299-3.327h73.355    c1.814,0,3.327,1.488,3.327,3.327c0,1.813-1.513,3.301-3.327,3.301H147.616z M147.616,114.465c-1.811,0-3.299-1.487-3.299-3.326    c0-1.813,1.488-3.327,3.299-3.327h73.355c1.814,0,3.327,1.515,3.327,3.327c0,1.839-1.513,3.326-3.327,3.326H147.616z     M147.616,140.621c-1.811,0-3.299-1.487-3.299-3.326c0-1.84,1.488-3.327,3.299-3.327h207.899c1.839,0,3.326,1.487,3.326,3.327    c0,1.839-1.487,3.326-3.326,3.326H147.616z M147.616,166.777c-1.811,0-3.299-1.514-3.299-3.326c0-1.84,1.488-3.327,3.299-3.327    h207.899c1.839,0,3.326,1.487,3.326,3.327c0,1.813-1.487,3.326-3.326,3.326H147.616z M147.616,192.908    c-1.811,0-3.299-1.488-3.299-3.327c0-1.813,1.488-3.327,3.299-3.327h207.899c1.839,0,3.326,1.514,3.326,3.327    c0,1.839-1.487,3.327-3.326,3.327H147.616z M285.079,215.629c0.569,0.217,1.541,0.217,2.109,0    c3.029-1.217,3.029-5.085-0.027-6.303c-2.162-0.73-4.328-1.379-6.546-1.975c-4.814-0.946-5.488,5.653-1.702,6.438    C280.994,214.357,283.023,214.953,285.079,215.629z M308.127,226.854c4.057,2.435,7.113-3.462,3.649-5.545    c-1.948-1.244-3.839-2.435-5.844-3.599c-3.597-2.137-7.194,3.436-3.271,5.789C304.529,224.555,306.312,225.691,308.127,226.854z     M327.549,243.625c3.407,3.436,7.706-1.65,4.947-4.437c-1.54-1.704-3.109-3.354-4.762-4.977c-3.029-3.029-7.764,1.622-4.622,4.787    C324.625,240.487,326.113,242.056,327.549,243.625z M342.046,264.805c2.218,3.705,7.599,1.217,5.924-3.029    c-1.028-2.029-2.165-4.085-3.327-6.006c-2.246-3.76-7.952-0.352-5.709,3.408C340.042,260.936,341.127,262.938,342.046,264.805z     M350.619,288.986c0.84,4.139,7.385,3.029,6.493-1.434c-0.487-2.245-1.028-4.409-1.649-6.627    c-1.705-4.273-7.251-2.461-6.384,1.785C349.645,284.82,350.16,286.877,350.619,288.986z M352.701,314.547    c0,4.761,6.654,4.301,6.654,0.299c0.084-2.3,0.137-4.572,0.084-6.871c0-2.895-3.602-4.355-5.711-2.245    c-0.54,0.433-0.943,1.569-0.943,2.407C352.865,310.273,352.785,312.41,352.701,314.547z M348.212,339.811    c-1.487,3.734,4.679,6.142,6.142,2.463c0.836-2.083,1.513-4.869,2.053-7.088c0.92-4.625-5.653-5.518-6.464-1.568    C349.402,335.699,348.861,337.729,348.212,339.811z M337.364,363.047c-2.352,3.922,3.464,7.141,5.626,3.543    c1.218-1.894,2.407-3.895,3.492-5.896c0.621-1.055,0.484-2.597-0.189-3.489c-1.545-2.083-4.355-1.84-5.654,0.325    C339.663,359.368,338.502,361.262,337.364,363.047z M300.037,397.615c-4.109,2.462-0.299,7.926,3.138,5.87    c1.976-1.027,4.057-2.245,5.952-3.436c3.678-2.19,0.27-7.899-3.437-5.68C303.824,395.506,301.957,396.614,300.037,397.615z     M276.018,406.622c-3.948,0.785-3.137,7.25,1.433,6.492c2.273-0.54,4.492-1.109,6.71-1.812c4.734-1.866,1.488-7.71-1.92-6.357    C280.184,405.595,278.099,406.136,276.018,406.622z M250.483,409.138c-4.597,0-4.355,6.655-0.161,6.655    c2.271,0.026,4.569,0.054,6.843-0.027c4.166,0,4.246-6.654-0.057-6.654C254.891,409.111,252.729,409.192,250.483,409.138z     M225.138,405.081c-3.622-1.434-6.356,4.896-2,6.356c2.218,0.677,4.517,1.244,6.791,1.758c4.461,0.92,5.545-5.652,1.432-6.464    C229.279,406.217,227.25,405.703,225.138,405.081z M201.715,394.668c-3.787-2.273-7.142,3.461-3.436,5.68    c1.948,1.189,3.948,2.326,5.977,3.381c3.247,1.947,7.005-2.976,3.274-5.762C205.583,396.858,203.663,395.83,201.715,394.668z     M181.753,378.572c-3.222-3.219-7.791,1.623-4.815,4.599c1.541,1.624,3.246,3.327,4.92,4.815c2.867,2.867,7.738-1.65,4.573-4.842    C184.81,381.684,183.241,380.142,181.753,378.572z M166.497,357.907c-2.354-3.949-7.9-0.298-5.791,3.273    c1.056,1.921,2.299,4.057,3.517,5.87c2.137,3.569,7.928,0.324,5.573-3.626C168.634,361.641,167.525,359.773,166.497,357.907z     M157.109,334.076c-0.783-3.949-7.384-3.002-6.437,1.623c0.512,2.219,1.162,4.437,1.867,6.602c1.839,4.57,7.735,1.514,6.328-2.057    C158.218,338.215,157.597,336.16,157.109,334.076z M154.133,308.57c0-4.437-6.654-4.355-6.654-0.027    c0,2.299,0.028,4.545,0.137,6.843c0,3.949,6.626,4.409,6.626-0.324C154.133,312.925,154.133,310.733,154.133,308.57z     M157.73,283.197c0.976-4.896-5.65-5.491-6.408-1.785c-0.432,2.164-1.165,4.436-1.625,6.682c-0.863,4.328,5.654,5.6,6.521,1.325    C156.678,287.39,157.327,285.172,157.73,283.197z M167.74,259.584c1.597-2.651-1.134-5.951-4.057-4.787    c-0.702,0.297-1.242,0.729-1.678,1.434c-1.133,1.947-2.298,4.003-3.271,6.031c-1.867,4.68,4.569,6.41,5.948,2.948    C165.739,263.451,166.687,261.396,167.74,259.584z M183.511,239.324c3.082-3.111-1.625-7.816-4.706-4.707    c-1.625,1.596-3.247,3.273-4.71,4.978c-0.863,0.865-1.162,2.841-0.375,3.868c1.214,2.027,3.703,2.164,5.355,0.514    C180.563,242.408,181.967,240.839,183.511,239.324z M227.573,213.897c0.217-0.026,0.73-0.271,0.891-0.378    c2.948-1.785,1.488-6.844-2.649-6.032c-2.109,0.515-4.517,1.271-6.573,2.001c-4.436,1.785-1.513,7.764,2.19,6.276    C223.379,215.115,225.544,214.385,227.573,213.897z M253.459,203.836c-2.436,0.135-4.868,0.08-7.356,0.27    c-4.06,0-4.141,6.627,0.323,6.627c4.843-0.297,8.738-0.025,13.469-0.025c4.896,0,4.274-6.654,0.407-6.654    C258.112,204.053,255.73,203.863,253.459,203.836z M41.447,455.636c-1.839,0-3.327-1.487-3.327-3.327    c0-1.813,1.488-3.327,3.327-3.327h307.496c1.839,0,3.327,1.515,3.327,3.327c0,1.84-1.488,3.327-3.327,3.327H41.447z     M221.516,474.354c-1.842,0-3.327-1.488-3.327-3.327c0-1.84,1.485-3.327,3.327-3.327h212.767c1.84,0,3.327,1.487,3.327,3.327    c0,1.839-1.487,3.327-3.327,3.327H221.516z M456.056,474.354c-1.811,0-3.327-1.488-3.327-3.327c0-1.84,1.517-3.327,3.327-3.327    h26.616c1.842,0,3.327,1.487,3.327,3.327c0,1.839-1.485,3.327-3.327,3.327H456.056z M29.329,473.785    c-1.839,0-3.327-1.486-3.327-3.326s1.488-3.327,3.327-3.327h100.813c1.839,0,3.327,1.487,3.327,3.327s-1.488,3.326-3.327,3.326    H29.329z M115.725,52.686h246.662V37.646H93.545v370.869h18.853V56.012C112.398,54.173,113.886,52.686,115.725,52.686z" style="fill-rule:evenodd;clip-rule:evenodd;"/></g></g><g id="Layer_1"/></svg>